<svg width="100%" height="100%" id="svg" viewBox="0 0 1440 500" xmlns="http://www.w3.org/2000/svg" class="transition duration-300 ease-in-out delay-150"><path d="M 0,500 C 0,500 0,125 0,125 C 45.33377728449871,123.06013071895426 90.66755456899742,121.12026143790851 145,116 C 199.33244543100258,110.87973856209149 262.66355900850914,102.57908496732026 330,115 C 397.33644099149086,127.42091503267974 468.6782093969663,160.56339869281047 509,164 C 549.3217906030337,167.43660130718953 558.6236034036257,141.1673202614379 611,134 C 663.3763965963743,126.83267973856209 758.8273769885313,138.7673202614379 823,146 C 887.1726230114687,153.2326797385621 920.0668886422493,155.76339869281048 972,139 C 1023.9331113577507,122.23660130718953 1094.9050684424712,86.17908496732028 1148,81 C 1201.0949315575288,75.82091503267972 1236.3128375878653,101.52026143790849 1282,114 C 1327.6871624121347,126.47973856209151 1383.8435812060675,125.73986928104576 1440,125 C 1440,125 1440,500 1440,500 Z" stroke="none" stroke-width="0" fill="#e82e5d66" class="transition-all duration-300 ease-in-out delay-150 path-0"></path><path d="M 0,500 C 0,500 0,250 0,250 C 65.11668516463189,267.9704032556419 130.23337032926378,285.94080651128377 186,283 C 241.76662967073622,280.05919348871623 288.18320384757675,256.20717721050687 332,250 C 375.81679615242325,243.79282278949313 417.03381428042917,255.2304846466889 466,244 C 514.9661857195708,232.7695153533111 571.6815390307066,198.8708842027377 629,210 C 686.3184609692934,221.1291157972623 744.2400295967444,277.28597854236034 795,284 C 845.7599704032556,290.71402145763966 889.3583425823159,247.98520162782094 935,236 C 980.6416574176841,224.01479837217906 1028.3266000739918,242.77321494635592 1094,239 C 1159.6733999260082,235.22678505364408 1243.3352571217167,208.92193858675546 1304,207 C 1364.6647428782833,205.07806141324454 1402.3323714391418,227.53903070662227 1440,250 C 1440,250 1440,500 1440,500 Z" stroke="none" stroke-width="0" fill="#e82e5d88" class="transition-all duration-300 ease-in-out delay-150 path-1"></path><path d="M 0,500 C 0,500 0,375 0,375 C 56.041780737452214,368.070662227155 112.08356147490443,361.14132445431005 163,351 C 213.91643852509557,340.85867554568995 259.7075348378345,327.5053644099149 309,330 C 358.2924651621655,332.4946355900851 411.08629917375765,350.8372179060304 463,356 C 514.9137008262423,361.1627820939696 565.9472684671352,353.1457639659637 627,349 C 688.0527315328648,344.8542360340363 759.1246269577016,344.5797262301147 819,341 C 878.8753730422984,337.4202737698853 927.5542237020593,330.53533111357746 977,343 C 1026.4457762979407,355.46466888642254 1076.658478234061,387.2789493155753 1133,393 C 1189.341521765939,398.7210506844247 1251.8118633616969,378.34887162412133 1304,371 C 1356.1881366383031,363.65112837587867 1398.0940683191516,369.32556418793934 1440,375 C 1440,375 1440,500 1440,500 Z" stroke="none" stroke-width="0" fill="#e82e5dff" class="transition-all duration-300 ease-in-out delay-150 path-2"></path></svg>